<?xml version="1.0"?>
<svg xmlns="http://www.w3.org/2000/svg" width="230" height="230" viewBox="0 0 178 90" fill="none"><g clip-path="url(#a)"><path d="M159.024 6.41c2.792-.072 5.57.416 8.17 1.434 2.243.898 4.249 2.3 5.864 4.097a16.037 16.037 0 0 1 3.384 6.347c.712 2.71.896 5.532.539 8.31-.508 4.739-2.372 8.406-5.594 11.001-3.223 2.595-7.273 3.908-12.147 3.939-4.875.027-8.941-1.235-12.196-3.787-3.256-2.553-5.166-6.19-5.73-10.91-.393-2.775-.243-5.6.441-8.317a15.983 15.983 0 0 1 3.307-6.41 15.752 15.752 0 0 1 5.818-4.168 20.941 20.941 0 0 1 8.144-1.537zm3.121 14.363c.049-1.438-.211-2.53-.78-3.275a2.854 2.854 0 0 0-2.279-1.11 2.86 2.86 0 0 0-2.266 1.138c-.564.75-.807 1.847-.74 3.283 0 1.377.319 2.38.956 3.007a2.794 2.794 0 0 0 4.189-.028c.62-.63.927-1.639.92-3.015zM116.15 6.445c3.977 0 7.48.636 10.506 1.91a20.332 20.332 0 0 1 7.521 5.32 20.646 20.646 0 0 1 4.32 8.23c.879 3.206 1.089 6.775.631 10.709-.691 6.095-3.122 10.796-7.292 14.103-4.17 3.307-9.398 4.968-15.686 4.982-6.279 0-11.505-1.658-15.676-4.975-4.173-3.317-6.603-8.018-7.292-14.103-.47-3.937-.259-7.507.635-10.709a20.544 20.544 0 0 1 4.316-8.236 20.274 20.274 0 0 1 7.52-5.32c3.023-1.273 6.522-1.909 10.497-1.912zm3.914 18.517c.072-1.85-.252-3.26-.974-4.231a3.677 3.677 0 0 0-5.856 0c-.731.962-1.058 2.372-.981 4.231 0 1.778.402 3.07 1.206 3.879a3.607 3.607 0 0 0 4.18.898c.465-.21.881-.516 1.219-.898.803-.812 1.206-2.104 1.206-3.879zM27.029 46.587c-.254-6.897-.006-12.254.744-16.072.75-3.817 1.871-6.628 3.363-8.434-6.478 3.761-10.401 7.758-11.768 11.989-1.369 4.23-.34 8.462 3.084 12.693 1.925 2.348 2.849 4.471 2.75 6.382a6.487 6.487 0 0 1-2.115 4.668c-1.307 1.206-3.05 2.029-5.232 2.468-2.16.433-4.389.398-6.534-.102a14.005 14.005 0 0 1-6.022-3.11c-1.834-1.577-3.094-3.772-3.78-6.583a23.57 23.57 0 0 1 .279-12.297c1.175-4.12 3.386-8.07 6.632-11.852 3.246-3.782 7.477-7.33 12.693-10.644 5.227-3.315 11.422-6.245 18.582-8.79 7.169-2.457 13.493-4.108 18.973-4.954C64.157 1.102 68.858.887 72.78 1.3c3.92.397 7.144 1.35 9.668 2.86a16.868 16.868 0 0 1 5.79 5.471 15.226 15.226 0 0 1 2.285 7.08 23.767 23.767 0 0 1-.744 7.786 17.819 17.819 0 0 1-3.036 6.276 29.408 29.408 0 0 1-4.796 4.971 40.27 40.27 0 0 1-5.641 3.879 56.194 56.194 0 0 1-5.582 2.732 13.53 13.53 0 0 1 6.16 1.51 12.651 12.651 0 0 1 4.936 4.516c1.31 2.01 2.132 4.487 2.469 7.433.336 2.945-.085 6.293-1.263 10.045a32.32 32.32 0 0 1-5.789 10.895 32.902 32.902 0 0 1-8.78 7.584 35.259 35.259 0 0 1-10.779 4.119c-3.87.799-7.841.985-11.77.55a40.088 40.088 0 0 1-11.67-3.174 38.85 38.85 0 0 1-10.577-6.931c-2.863-2.612-4.809-5.139-5.836-7.58-1.027-2.443-1.463-4.452-1.308-6.026.155-1.573.73-2.545 1.728-2.913.997-.37 2.117.218 3.36 1.762a23.79 23.79 0 0 0 5.289 4.873 31.126 31.126 0 0 0 6.49 3.364c-1.62-2.078-3.031-5.157-4.23-9.238-1.2-4.08-1.907-9.6-2.126-16.557zm20.147-31.028c2.395 0 4.121.448 5.18 1.346a5.726 5.726 0 0 1 1.921 3.703c.21 1.844.126 3.71-.25 5.528-.42 2.27-.89 4.529-1.41 6.777 4.564-1.234 8.183-2.762 10.856-4.583 2.672-1.822 4.468-3.674 5.387-5.557.922-1.88 1.039-3.634.353-5.261-.686-1.626-2.142-2.875-4.369-3.744-2.202-.87-5.071-1.208-8.607-1.012-3.535.195-7.668 1.191-12.4 2.99.54-.055 1.082-.099 1.625-.131.53-.031 1.1-.039 1.714-.039v-.017zm3.427 39.06c.052 1.623.093 3.11.123 4.46a11.706 11.706 0 0 1-.373 3.452c1.75-.038 3.489-.301 5.172-.783a15.299 15.299 0 0 0 4.387-2.063 11.211 11.211 0 0 0 4.887-7.83c.22-1.679-.113-3.04-1.002-4.084a8.347 8.347 0 0 0-3.526-2.355 15.398 15.398 0 0 0-4.845-.882 20.509 20.509 0 0 0-5.01.42 48.536 48.536 0 0 0-.081 5.007c.066 1.657.155 3.215.268 4.675v-.017z" fill="#A71BC9"/><path d="m106.428 66.635-1.409.86a6.002 6.002 0 0 0-5.026-2.387 5.882 5.882 0 0 0-4.23 1.6 5.157 5.157 0 0 0-1.682 3.88 5.505 5.505 0 0 0 2.895 4.83c.932.49 1.972.738 3.024.723a6.172 6.172 0 0 0 5.015-2.387l1.41.913a6.698 6.698 0 0 1-2.683 2.278 8.755 8.755 0 0 1-3.836.808 7.694 7.694 0 0 1-5.483-2.05 6.602 6.602 0 0 1-2.175-4.985 6.965 6.965 0 0 1 1.018-3.667 7.051 7.051 0 0 1 2.796-2.644 8.313 8.313 0 0 1 3.984-.953 8.693 8.693 0 0 1 2.67.413c.78.232 1.517.59 2.183 1.058a5.92 5.92 0 0 1 1.529 1.71zm17.045-2.825v13.596h-1.883V75.07a8.154 8.154 0 0 1-2.702 2.013 7.89 7.89 0 0 1-3.27.674 7.602 7.602 0 0 1-5.389-2.091 6.712 6.712 0 0 1-2.235-5.102 6.602 6.602 0 0 1 2.253-5.025 7.72 7.72 0 0 1 5.426-2.087 7.526 7.526 0 0 1 3.312.705 7.31 7.31 0 0 1 2.605 2.137v-2.5l1.883.017zm-7.644 1.337a6.18 6.18 0 0 0-2.948.705 5.511 5.511 0 0 0-2.147 2.013 5.093 5.093 0 0 0 0 5.493 5.597 5.597 0 0 0 2.161 2.042 6.062 6.062 0 0 0 2.912.73 6.406 6.406 0 0 0 2.976-.723 5.343 5.343 0 0 0 2.166-1.96 5.233 5.233 0 0 0 .754-2.786 5.163 5.163 0 0 0-1.675-3.928 5.903 5.903 0 0 0-4.199-1.586zm19.777.148-1.232 1.163c-1.022-.907-2.022-1.36-2.999-1.36a2.402 2.402 0 0 0-1.598.56 1.681 1.681 0 0 0-.663 1.311c.014.476.21.927.547 1.263.352.409 1.131.888 2.302 1.439 1.424.672 2.392 1.322 2.902 1.95.489.604.755 1.359.751 2.136a3.685 3.685 0 0 1-1.283 2.838 4.636 4.636 0 0 1-3.216 1.16 6.042 6.042 0 0 1-2.468-.511 5.268 5.268 0 0 1-1.936-1.41l1.202-1.248c.978 1.008 2.015 1.512 3.11 1.512a2.947 2.947 0 0 0 1.957-.677 2 2 0 0 0 .808-1.586 1.933 1.933 0 0 0-.533-1.337c-.355-.385-1.159-.868-2.412-1.45-1.339-.633-2.252-1.259-2.736-1.874a3.44 3.44 0 0 1 .431-4.687 4.23 4.23 0 0 1 2.919-1.025c1.382-.004 2.757.61 4.147 1.833zm4.403-7.073a1.6 1.6 0 0 1 1.115.424c.295.258.464.632.461 1.025.001.389-.168.758-.461 1.012-.303.28-.702.434-1.115.427a1.578 1.578 0 0 1-1.103-.427 1.328 1.328 0 0 1-.462-1.012 1.362 1.362 0 0 1 .462-1.026c.299-.278.695-.43 1.103-.423zm-.941 5.588h1.915v13.596h-1.915V63.81zm6.23 0h1.914v2.437a7.756 7.756 0 0 1 2.543-2.094 6.698 6.698 0 0 1 3.032-.706 5.64 5.64 0 0 1 2.958.776 4.746 4.746 0 0 1 1.904 2.088c.414.874.62 2.236.617 4.086v6.998h-1.921v-6.48c.041-1.049-.03-2.1-.212-3.135a3.405 3.405 0 0 0-1.277-2.03 4.093 4.093 0 0 0-2.468-.68 4.993 4.993 0 0 0-3.109 1.057 4.914 4.914 0 0 0-1.813 2.602c-.178.672-.269 1.905-.271 3.699v4.985h-1.914l.017-13.603zm23.74-.352a7.697 7.697 0 0 1 5.695 2.278 6.848 6.848 0 0 1 1.47 7.651 6.865 6.865 0 0 1-1.587 2.239c-1.445 1.41-3.305 2.116-5.578 2.116s-4.137-.706-5.592-2.117a6.831 6.831 0 0 1-1.647-7.6 6.841 6.841 0 0 1 1.531-2.272 7.685 7.685 0 0 1 5.708-2.295zm0 1.714a5.789 5.789 0 0 0-4.101 1.611 5.27 5.27 0 0 0-.931 6.65 5.29 5.29 0 0 0 2.116 1.967 6.485 6.485 0 0 0 5.839 0 5.288 5.288 0 0 0 2.116-1.967 5.258 5.258 0 0 0-.939-6.65 5.804 5.804 0 0 0-4.1-1.611z" fill="#fff"/></g><defs><clipPath id="a"><path fill="#fff" transform="translate(.5 .75)" d="M0 0h177v88.5H0z"/></clipPath></defs></svg>
