<svg viewBox="0 0 24 24" xmlns="http://www.w3.org/2000/svg"><path d="m9.401 9.31-3.3 3.298a2.332 2.332 0 1 0 3.3 3.3 2.332 2.332 0 1 0 3.303-3.297L9.4 9.309Zm0-.834 3.303-3.302A2.332 2.332 0 1 0 9.4 1.879a2.334 2.334 0 0 0-3.3 3.299l3.3 3.299Zm6.986.45a2.332 2.332 0 0 0 0-3.3 2.335 2.335 0 0 0-3.3 0l-3.3 3.3 3.302 3.301a2.334 2.334 0 1 0 3.298-3.301ZM5.652 5.627a2.335 2.335 0 0 0-3.3 0 2.332 2.332 0 0 0 0 3.299 2.335 2.335 0 0 0-.003 3.301c.912.911 2.39.911 3.3 0l3.304-3.301-3.3-3.3ZM3.87 13.62c-1.323 1.611-2.203 4.328-2.203 6.731h.586c.324 0 .586.02.586 0 0-2.03.714-4.425 1.802-5.818a3.532 3.532 0 0 1 .057-.979 3.54 3.54 0 0 1-.828.067Z"/></svg>