<svg viewBox="0 0 20 21" xmlns="http://www.w3.org/2000/svg"><path d="m18.334 4.694-.417 5h-1.25v1.666h2.5V4.694h-.833Zm-2.5-.834L1.667 2.194V6.36h14.167v-2.5Z"/><path fill-rule="evenodd" clip-rule="evenodd" d="M5.834 7.194H1.667v6.666l4.167-.244V7.194ZM3.959 9.527l-1.125 2.364h.835l1.123-2.364V8.86H2.709v.667h1.25Zm2.708-2.333v6.373l4.167-.245V7.194H6.667Zm1.167 4.697 1.125-2.364h-1.25V8.86h2.083v.667l-1.123 2.364h-.835Zm8 1.137-4.167.245v-6.08h4.167v5.835Zm-1.875-3.501-1.125 2.364h.835l1.123-2.364V8.86h-2.083v.667h1.25Z"/><path d="M1.667 18.027v-3.333l14.167-.834v4.167H1.667ZM20 2.61a1.25 1.25 0 1 1-2.5 0 1.25 1.25 0 0 1 2.5 0Z"/></svg>