<svg viewBox="0 0 20 21" xmlns="http://www.w3.org/2000/svg"><path fill-rule="evenodd" clip-rule="evenodd" d="M4.5 1.193c-.645 0-1.167.523-1.167 1.167v16c0 .644.522 1.167 1.167 1.167h11c.644 0 1.166-.523 1.166-1.167v-16c0-.644-.522-1.167-1.166-1.167h-11Zm8.272 8.111c.356.319.58.74.633 1.194a1.76 1.76 0 0 1-.095.787 1.88 1.88 0 0 1-.434.683 2.09 2.09 0 0 1-.7.464 2.246 2.246 0 0 1-1.545.053c.049.378.194.74.425 1.055l.045.064a.17.17 0 0 1 .01.183.186.186 0 0 1-.072.07.207.207 0 0 1-.1.025H9.06a.207.207 0 0 1-.1-.026.186.186 0 0 1-.072-.069.17.17 0 0 1 .01-.183l.045-.064a2.28 2.28 0 0 0 .424-1.055c-.33.108-.685.138-1.032.087a2.182 2.182 0 0 1-.95-.38 1.94 1.94 0 0 1-.632-.753 1.767 1.767 0 0 1-.16-.939c.054-.453.278-.875.634-1.193l2.634-2.415a.21.21 0 0 1 .276 0l2.634 2.412Zm1.811-6.027h-2.917v-.834h3.75V7.36h-.833V3.277ZM5.416 13.36v4.083h2.917v.834h-3.75V13.36h.833Z"/></svg>